# xmcd CD database file
#
# Track frame offsets:
#	150
#	15651
#	28399
#	43508
#	58192
#	70922
#	84818
#	98643
#	111550
#	123371
#	141996
#	155196
#	170409
#	186566
#	200754
#	215398
#	227507
#	243047
#	257074
#	269669
#	284437
#	300911
#	318700
#
# Disc length: 4513 seconds
#
# Revision: 0
# Processed by: cddbd v1.5.2PL0 Copyright (c) Steve Scherf et al.
# Submitted via: CDex 1.70beta2
#
DISCID=59119f17
DTITLE=Arena Mix - Arena Mix
DYEAR=2012
DGENRE=Country
TTITLE0=Cuiabano Lima - Biscate
TTITLE1=Humberto and Ronaldo - Só vou beber mais hoje
TTITLE2=Gustavo Lima - Gatinha assanhada
TTITLE3=Jorge e Matheus - Flor
TTITLE4=Israel Novaes - Vem ni Mim Dodge Ram
TTITLE5=Guilherme e Santiago - Besteirinha
TTITLE6=Maria Cecilia e Rodolfo - Beijo Bom
TTITLE7=Matheus e Kauan - Perdeu o Controle
TTITLE8=Matheus Mendes - Cafajeste
TTITLE9=Humberto e Ronaldo - Eu vou contar proceis
TTITLE10=Gustavo Lima - As Mina Pira
TTITLE11=Jorge e Matheus - Eu quero só Você
TTITLE12=Guilherme e Santiago - Eu vou até o fim
TTITLE13=Israel Novaes - O Cara do Arrocha
TTITLE14=Maria Cecilia e Rodolfo - Quando eu parar de ligar
TTITLE15=Matheus e Kauan - Será Possivél
TTITLE16=Jorge e Matheus - O que que tem
TTITLE17=Gustavo Lima - Sete Mares
TTITLE18=Humberto e ROnaldo - Beijo Meu
TTITLE19=Guilherme e Santiago - Valentão
TTITLE20=Jorge e Matheus - A Hora é Agora
TTITLE21=Gustava Lima - Balada
TTITLE22=Gustavo Lima - Gatinha Assanhada
EXTD=YEAR: 2012
EXTT0=
EXTT1=
EXTT2=
EXTT3=
EXTT4=
EXTT5=
EXTT6=
EXTT7=
EXTT8=
EXTT9=
EXTT10=
EXTT11=
EXTT12=
EXTT13=
EXTT14=
EXTT15=
EXTT16=
EXTT17=
EXTT18=
EXTT19=
EXTT20=
EXTT21=
EXTT22=
PLAYORDER=
